------------------------------:TPB IS BENEDICTION TO ME :--------------------------


Screen Link :---
 
http://www.shotpix.com/images/51834946650463292184.jpg


General Info :---


Format                           : Matroska
File size                        : 346 MiB
Duration                         : 2h 3mn
Overall bit rate                 : 393 Kbps
Movie name                       : P
Encoded date                     : UTC 2011-06-07 22:54:51
Writing application              : mkvmerge v4.6.0 ('Still Crazy After All These Years') built on Mar 10 2011 02:50:32
Writing library                  : libebml v1.2.0 + libmatroska v1.1.0

Video
ID                               : 1
Format                           : AVC
Format/Info                      : Advanced Video Codec
Format profile                   : High@L4.0
Format settings, CABAC           : Yes
Format settings, ReFrames        : 3 frames
Codec ID                         : V_MPEG4/ISO/AVC
Duration                         : 2h 3mn
Bit rate mode                    : Variable
Bit rate                         : 168 Kbps
Maximum bit rate                 : 25.0 Mbps
Width                            : 640 pixels
Height                           : 432 pixels
Display aspect ratio             : 3:2
Frame rate                       : 29.970 fps
Color space                      : YUV
Chroma subsampling               : 4:2:0
Bit depth                        : 8 bits
Scan type                        : Progressive
Bits/(Pixel*Frame)               : 0.020
Stream size                      : 142 MiB (41%)


Audio
ID                               : 2
Format                           : AC-3
Format/Info                      : Audio Coding 3
Mode extension                   : CM (complete main)
Codec ID                         : A_AC3
Duration                         : 2h 3mn
Bit rate mode                    : Constant
Bit rate                         : 224 Kbps
Channel(s)                       : 2 channels
Channel positions                : Front: L R
Sampling rate                    : 44.1 KHz
Bit depth                        : 16 bits
Compression mode                 : Lossy
Stream size                      : 197 MiB (57%)




------------------------------:TPB IS BENEDICTION TO ME :--------------------------




